<mxfile host="app.diagrams.net" modified="2021-03-07T16:18:22.837Z" agent="5.0 (Windows NT 10.0; WOW64) AppleWebKit/537.36 (KHTML, like Gecko) Chrome/78.0.3904.108 Safari/537.36" etag="pd9W1SQcVMVMwKF2DSZd" version="14.4.4" type="github" pages="2">
  <diagram id="znx_niQGj1cJ5YX2F9b2" name="Page-1">
    <mxGraphModel dx="1424" dy="732" grid="1" gridSize="10" guides="1" tooltips="1" connect="1" arrows="1" fold="1" page="1" pageScale="1" pageWidth="827" pageHeight="1169" math="0" shadow="0">
      <root>
        <mxCell id="0" />
        <mxCell id="1" parent="0" />
        <mxCell id="bnoFuThpsU7MgCxZiRhx-1" value="资源持有者" style="rounded=0;whiteSpace=wrap;html=1;" vertex="1" parent="1">
          <mxGeometry x="90" y="80" width="120" height="70" as="geometry" />
        </mxCell>
        <mxCell id="bnoFuThpsU7MgCxZiRhx-2" value="第三方应用" style="rounded=0;whiteSpace=wrap;html=1;" vertex="1" parent="1">
          <mxGeometry x="90" y="420" width="120" height="60" as="geometry" />
        </mxCell>
        <mxCell id="bnoFuThpsU7MgCxZiRhx-3" value="" style="rounded=0;whiteSpace=wrap;html=1;align=center;" vertex="1" parent="1">
          <mxGeometry x="400" y="80" width="120" height="400" as="geometry" />
        </mxCell>
        <mxCell id="bnoFuThpsU7MgCxZiRhx-4" value="1、请求用户授权" style="endArrow=classic;html=1;exitX=0.175;exitY=0.033;exitDx=0;exitDy=0;exitPerimeter=0;entryX=0.167;entryY=1.071;entryDx=0;entryDy=0;entryPerimeter=0;" edge="1" parent="1" source="bnoFuThpsU7MgCxZiRhx-2" target="bnoFuThpsU7MgCxZiRhx-1">
          <mxGeometry width="50" height="50" relative="1" as="geometry">
            <mxPoint x="140" y="330" as="sourcePoint" />
            <mxPoint x="190" y="280" as="targetPoint" />
          </mxGeometry>
        </mxCell>
        <mxCell id="bnoFuThpsU7MgCxZiRhx-5" value="服务提供商" style="rounded=0;whiteSpace=wrap;html=1;align=center;" vertex="1" parent="1">
          <mxGeometry x="400" y="80" width="120" height="60" as="geometry" />
        </mxCell>
        <mxCell id="bnoFuThpsU7MgCxZiRhx-6" value="认证服务" style="rounded=0;whiteSpace=wrap;html=1;align=center;" vertex="1" parent="1">
          <mxGeometry x="414" y="200" width="100" height="60" as="geometry" />
        </mxCell>
        <mxCell id="bnoFuThpsU7MgCxZiRhx-7" value="资源服务" style="rounded=0;whiteSpace=wrap;html=1;align=center;" vertex="1" parent="1">
          <mxGeometry x="420" y="330" width="94" height="60" as="geometry" />
        </mxCell>
        <mxCell id="bnoFuThpsU7MgCxZiRhx-8" value="2、同意授权&lt;br&gt;3、第三方应用引导用户前往服务商提供的授权页面" style="endArrow=classic;html=1;exitX=0.833;exitY=1;exitDx=0;exitDy=0;exitPerimeter=0;" edge="1" parent="1" source="bnoFuThpsU7MgCxZiRhx-1">
          <mxGeometry width="50" height="50" relative="1" as="geometry">
            <mxPoint x="230" y="390" as="sourcePoint" />
            <mxPoint x="190" y="290" as="targetPoint" />
            <Array as="points">
              <mxPoint x="190" y="190" />
              <mxPoint x="190" y="290" />
            </Array>
          </mxGeometry>
        </mxCell>
        <mxCell id="bnoFuThpsU7MgCxZiRhx-9" value="" style="endArrow=classic;html=1;exitX=0.825;exitY=-0.017;exitDx=0;exitDy=0;exitPerimeter=0;" edge="1" parent="1" source="bnoFuThpsU7MgCxZiRhx-2">
          <mxGeometry width="50" height="50" relative="1" as="geometry">
            <mxPoint x="230" y="390" as="sourcePoint" />
            <mxPoint x="189" y="290" as="targetPoint" />
          </mxGeometry>
        </mxCell>
        <mxCell id="bnoFuThpsU7MgCxZiRhx-10" value="" style="endArrow=classic;html=1;" edge="1" parent="1">
          <mxGeometry width="50" height="50" relative="1" as="geometry">
            <mxPoint x="190" y="290" as="sourcePoint" />
            <mxPoint x="280" y="290" as="targetPoint" />
          </mxGeometry>
        </mxCell>
        <mxCell id="bnoFuThpsU7MgCxZiRhx-11" value="" style="endArrow=classic;html=1;entryX=0;entryY=0;entryDx=0;entryDy=0;" edge="1" parent="1" target="bnoFuThpsU7MgCxZiRhx-6">
          <mxGeometry width="50" height="50" relative="1" as="geometry">
            <mxPoint x="280" y="290" as="sourcePoint" />
            <mxPoint x="330" y="170" as="targetPoint" />
            <Array as="points">
              <mxPoint x="280" y="200" />
            </Array>
          </mxGeometry>
        </mxCell>
        <mxCell id="bnoFuThpsU7MgCxZiRhx-12" value="4、返回授权码给第三方应用&lt;br&gt;5、通过授权码，&lt;br&gt;第三方应用申请token&lt;br&gt;6、获取到token" style="endArrow=classic;html=1;exitX=0.5;exitY=1;exitDx=0;exitDy=0;entryX=0.992;entryY=0.117;entryDx=0;entryDy=0;entryPerimeter=0;" edge="1" parent="1">
          <mxGeometry width="50" height="50" relative="1" as="geometry">
            <mxPoint x="466" y="260" as="sourcePoint" />
            <mxPoint x="213.03999999999996" y="449.02" as="targetPoint" />
            <Array as="points">
              <mxPoint x="466" y="290" />
              <mxPoint x="466" y="300" />
              <mxPoint x="466" y="449" />
            </Array>
          </mxGeometry>
        </mxCell>
        <mxCell id="bnoFuThpsU7MgCxZiRhx-13" value="7、使用token访问用户资源&lt;br&gt;8、资源服务中心返回资源" style="endArrow=classic;html=1;entryX=1;entryY=0.5;entryDx=0;entryDy=0;" edge="1" parent="1" target="bnoFuThpsU7MgCxZiRhx-7">
          <mxGeometry width="50" height="50" relative="1" as="geometry">
            <mxPoint x="150" y="485" as="sourcePoint" />
            <mxPoint x="560" y="360" as="targetPoint" />
            <Array as="points">
              <mxPoint x="150" y="530" />
              <mxPoint x="560" y="530" />
              <mxPoint x="560" y="360" />
            </Array>
          </mxGeometry>
        </mxCell>
        <mxCell id="bnoFuThpsU7MgCxZiRhx-14" value="第三方应用获取到token，进行token认证流程" style="rounded=1;whiteSpace=wrap;html=1;" vertex="1" parent="1">
          <mxGeometry x="170" y="600" width="300" height="60" as="geometry" />
        </mxCell>
        <mxCell id="bnoFuThpsU7MgCxZiRhx-15" value="/aouth/token请求接入" style="shape=flexArrow;endArrow=classic;html=1;endWidth=40;endSize=17.33;" edge="1" parent="1">
          <mxGeometry width="50" height="50" relative="1" as="geometry">
            <mxPoint x="50" y="750" as="sourcePoint" />
            <mxPoint x="210" y="750" as="targetPoint" />
            <Array as="points">
              <mxPoint x="170" y="750" />
            </Array>
          </mxGeometry>
        </mxCell>
        <mxCell id="bnoFuThpsU7MgCxZiRhx-16" value="TokenEndPoint" style="rounded=0;whiteSpace=wrap;html=1;" vertex="1" parent="1">
          <mxGeometry x="230" y="720" width="180" height="60" as="geometry" />
        </mxCell>
        <mxCell id="bnoFuThpsU7MgCxZiRhx-17" value="" style="endArrow=classic;html=1;exitX=0.456;exitY=1.017;exitDx=0;exitDy=0;exitPerimeter=0;" edge="1" parent="1" source="bnoFuThpsU7MgCxZiRhx-16">
          <mxGeometry width="50" height="50" relative="1" as="geometry">
            <mxPoint x="250" y="800" as="sourcePoint" />
            <mxPoint x="312" y="840" as="targetPoint" />
          </mxGeometry>
        </mxCell>
        <mxCell id="bnoFuThpsU7MgCxZiRhx-18" value="ClientDetailService&lt;br&gt;根据client_id去查出client details&lt;br&gt;验证client_id的正确性&lt;br&gt;和client_secret的正确性" style="rounded=0;whiteSpace=wrap;html=1;" vertex="1" parent="1">
          <mxGeometry x="237.5" y="840" width="150" height="90" as="geometry" />
        </mxCell>
        <mxCell id="bnoFuThpsU7MgCxZiRhx-19" value="" style="endArrow=classic;html=1;exitX=0;exitY=0.5;exitDx=0;exitDy=0;" edge="1" parent="1" source="bnoFuThpsU7MgCxZiRhx-18">
          <mxGeometry width="50" height="50" relative="1" as="geometry">
            <mxPoint x="250" y="900" as="sourcePoint" />
            <mxPoint x="160" y="885" as="targetPoint" />
          </mxGeometry>
        </mxCell>
        <mxCell id="bnoFuThpsU7MgCxZiRhx-20" value="包装成ClientDetail pojo" style="rounded=0;whiteSpace=wrap;html=1;" vertex="1" parent="1">
          <mxGeometry x="40" y="855" width="120" height="60" as="geometry" />
        </mxCell>
        <mxCell id="bnoFuThpsU7MgCxZiRhx-21" value="" style="endArrow=classic;html=1;exitX=0.5;exitY=1;exitDx=0;exitDy=0;" edge="1" parent="1" source="bnoFuThpsU7MgCxZiRhx-20">
          <mxGeometry width="50" height="50" relative="1" as="geometry">
            <mxPoint x="170" y="900" as="sourcePoint" />
            <mxPoint x="100" y="960" as="targetPoint" />
          </mxGeometry>
        </mxCell>
        <mxCell id="bnoFuThpsU7MgCxZiRhx-22" value="TokenRequest&lt;br&gt;将上面的pojo和前端请求的参数，拼接在一起包装成这个" style="rounded=0;whiteSpace=wrap;html=1;" vertex="1" parent="1">
          <mxGeometry x="40" y="960" width="120" height="60" as="geometry" />
        </mxCell>
        <mxCell id="bnoFuThpsU7MgCxZiRhx-23" value="" style="endArrow=classic;html=1;" edge="1" parent="1" source="bnoFuThpsU7MgCxZiRhx-22">
          <mxGeometry width="50" height="50" relative="1" as="geometry">
            <mxPoint x="160" y="1040" as="sourcePoint" />
            <mxPoint x="230.71067811865476" y="990" as="targetPoint" />
            <Array as="points">
              <mxPoint x="240" y="990" />
            </Array>
          </mxGeometry>
        </mxCell>
        <mxCell id="bnoFuThpsU7MgCxZiRhx-24" value="TokenGranter&lt;br&gt;一个适配器，根据验证形式选择验证类&lt;br&gt;选择使用某一种认证方式作认证" style="rounded=0;whiteSpace=wrap;html=1;" vertex="1" parent="1">
          <mxGeometry x="242.5" y="950" width="145" height="70" as="geometry" />
        </mxCell>
        <mxCell id="bnoFuThpsU7MgCxZiRhx-25" value="" style="endArrow=classic;html=1;" edge="1" parent="1" source="bnoFuThpsU7MgCxZiRhx-24">
          <mxGeometry width="50" height="50" relative="1" as="geometry">
            <mxPoint x="350" y="1040" as="sourcePoint" />
            <mxPoint x="500" y="990" as="targetPoint" />
          </mxGeometry>
        </mxCell>
        <mxCell id="bnoFuThpsU7MgCxZiRhx-26" value="&lt;br&gt;&lt;br&gt;&lt;br&gt;&lt;br&gt;登陆成功，&lt;br&gt;获取到这两个对象" style="endArrow=classic;html=1;" edge="1" parent="1">
          <mxGeometry width="50" height="50" relative="1" as="geometry">
            <mxPoint x="430" y="990" as="sourcePoint" />
            <mxPoint x="500" y="920" as="targetPoint" />
            <Array as="points">
              <mxPoint x="430" y="920" />
            </Array>
          </mxGeometry>
        </mxCell>
        <mxCell id="bnoFuThpsU7MgCxZiRhx-27" value="Oauth2Request" style="rounded=0;whiteSpace=wrap;html=1;" vertex="1" parent="1">
          <mxGeometry x="500" y="870" width="120" height="60" as="geometry" />
        </mxCell>
        <mxCell id="bnoFuThpsU7MgCxZiRhx-28" value="Authentication" style="rounded=0;whiteSpace=wrap;html=1;" vertex="1" parent="1">
          <mxGeometry x="500" y="960" width="120" height="60" as="geometry" />
        </mxCell>
        <mxCell id="bnoFuThpsU7MgCxZiRhx-29" value="" style="endArrow=classic;html=1;entryX=1;entryY=0.5;entryDx=0;entryDy=0;" edge="1" parent="1" source="bnoFuThpsU7MgCxZiRhx-27" target="bnoFuThpsU7MgCxZiRhx-28">
          <mxGeometry width="50" height="50" relative="1" as="geometry">
            <mxPoint x="620" y="950" as="sourcePoint" />
            <mxPoint x="660" y="1000" as="targetPoint" />
            <Array as="points">
              <mxPoint x="660" y="900" />
              <mxPoint x="660" y="990" />
            </Array>
          </mxGeometry>
        </mxCell>
        <mxCell id="bnoFuThpsU7MgCxZiRhx-30" value="" style="endArrow=classic;html=1;exitX=0.45;exitY=1.1;exitDx=0;exitDy=0;exitPerimeter=0;" edge="1" parent="1" source="bnoFuThpsU7MgCxZiRhx-28">
          <mxGeometry width="50" height="50" relative="1" as="geometry">
            <mxPoint x="480" y="900" as="sourcePoint" />
            <mxPoint x="554" y="1080" as="targetPoint" />
          </mxGeometry>
        </mxCell>
        <mxCell id="bnoFuThpsU7MgCxZiRhx-31" value="包装成Oauth2Authentication&lt;br&gt;认证成功依据" style="rounded=0;whiteSpace=wrap;html=1;" vertex="1" parent="1">
          <mxGeometry x="500" y="1080" width="120" height="60" as="geometry" />
        </mxCell>
        <mxCell id="bnoFuThpsU7MgCxZiRhx-32" value="" style="endArrow=classic;html=1;exitX=0;exitY=0.5;exitDx=0;exitDy=0;" edge="1" parent="1" source="bnoFuThpsU7MgCxZiRhx-31">
          <mxGeometry width="50" height="50" relative="1" as="geometry">
            <mxPoint x="500" y="1150" as="sourcePoint" />
            <mxPoint x="430" y="1110" as="targetPoint" />
          </mxGeometry>
        </mxCell>
        <mxCell id="bnoFuThpsU7MgCxZiRhx-33" value="AuthorizationServerTokenServices&lt;br&gt;内置两个标准" style="rounded=0;whiteSpace=wrap;html=1;" vertex="1" parent="1">
          <mxGeometry x="230" y="1030" width="200" height="170" as="geometry" />
        </mxCell>
        <mxCell id="bnoFuThpsU7MgCxZiRhx-34" value="TokenStore&lt;br&gt;token的存储标准&lt;br&gt;通过配置修改存储位置" style="rounded=0;whiteSpace=wrap;html=1;" vertex="1" parent="1">
          <mxGeometry x="210" y="1150" width="120" height="60" as="geometry" />
        </mxCell>
        <mxCell id="bnoFuThpsU7MgCxZiRhx-35" value="TokenEnhancer&lt;br&gt;token的增强标准，让它变成jwt" style="rounded=0;whiteSpace=wrap;html=1;" vertex="1" parent="1">
          <mxGeometry x="340" y="1150" width="120" height="60" as="geometry" />
        </mxCell>
        <mxCell id="bnoFuThpsU7MgCxZiRhx-36" value="" style="endArrow=classic;html=1;exitX=0.01;exitY=0.306;exitDx=0;exitDy=0;exitPerimeter=0;" edge="1" parent="1" source="bnoFuThpsU7MgCxZiRhx-33">
          <mxGeometry width="50" height="50" relative="1" as="geometry">
            <mxPoint x="210" y="1130" as="sourcePoint" />
            <mxPoint x="140" y="1082" as="targetPoint" />
          </mxGeometry>
        </mxCell>
        <mxCell id="bnoFuThpsU7MgCxZiRhx-37" value="Oauthn2Token&lt;br&gt;由上面的标准生成" style="rounded=0;whiteSpace=wrap;html=1;" vertex="1" parent="1">
          <mxGeometry x="20" y="1060" width="120" height="60" as="geometry" />
        </mxCell>
        <mxCell id="bnoFuThpsU7MgCxZiRhx-38" value="三个逻辑标准" style="endArrow=classic;html=1;exitX=0.323;exitY=1.011;exitDx=0;exitDy=0;exitPerimeter=0;" edge="1" parent="1" source="bnoFuThpsU7MgCxZiRhx-18">
          <mxGeometry width="50" height="50" relative="1" as="geometry">
            <mxPoint x="290" y="1000" as="sourcePoint" />
            <mxPoint x="190" y="1180" as="targetPoint" />
          </mxGeometry>
        </mxCell>
      </root>
    </mxGraphModel>
  </diagram>
  <diagram name="第 2 页" id="GgessNodDj61htvfoJAk">
    <mxGraphModel dx="471" dy="725" grid="1" gridSize="10" guides="1" tooltips="1" connect="1" arrows="1" fold="1" page="1" pageScale="1" pageWidth="827" pageHeight="1169" math="0" shadow="0">
      <root>
        <mxCell id="WCw63ZV3O4PUPYDyETIX-0" />
        <mxCell id="WCw63ZV3O4PUPYDyETIX-1" parent="WCw63ZV3O4PUPYDyETIX-0" />
      </root>
    </mxGraphModel>
  </diagram>
</mxfile>
